<svg width="2173" height="289" viewBox="0 0 2173 289" version="1.1" xmlns="http://www.w3.org/2000/svg" xmlns:xlink="http://www.w3.org/1999/xlink"><title>waves-bg</title><desc>Created with Sketch.</desc><g id="Footer" stroke="none" stroke-width="1" fill="none" fill-rule="evenodd" transform="translate(108.000000, -71.000000)" opacity=".515"><g id="waves-bg"><g transform="translate(-108.000000, 0.000000) translate(1093.500000, 194.000000) scale(-1, -1) translate(-1093.500000, -194.000000) translate(0.000000, 14.000000)"><path d="M14,86 C150.548191,183.752146 608.709888,414.802673 1064.87088,236.225159 C1800.13037,-51.5300756 2167,185.925234 2167,185.925234" id="Shape" stroke="#FFF" stroke-width=".519"/><path d="M49,46 C49,46 490.296473,428.844491 1182.26135,208.804302 C1773.65866,20.5618278 2149,236.473684 2149,236.473684" id="Shape" stroke="#FFF" stroke-width=".519"/><path d="M80,15 C80,15 522.395018,398.787779 1184.73784,174.840344 C1689.61803,3.8881044 2108.17698,174.840344 2187,223.722467" id="Shape" stroke="#FFF" stroke-width=".519"/><path d="M191,353 L191,11" id="Shape"/><path d="M2132,11 L2132,353" id="Shape"/><polyline id="Shape" points="16.4962078 0 0 263.435294 2175 360 1001.02734 252.625"/></g></g></g></svg>